<!DOCTYPE svg PUBLIC "-//W3C//DTD SVG 1.1//EN" "http://www.w3.org/Graphics/SVG/1.1/DTD/svg11.dtd">
<!-- Uploaded to: SVG Repo, www.svgrepo.com, Transformed by: SVG Repo Mixer Tools -->
<svg height="800px" width="800px" version="1.1" id="Layer_1" xmlns="http://www.w3.org/2000/svg" xmlns:xlink="http://www.w3.org/1999/xlink" viewBox="0 0 512 512" xml:space="preserve" fill="#000000">
<g id="SVGRepo_bgCarrier" stroke-width="0"/>
<g id="SVGRepo_tracerCarrier" stroke-linecap="round" stroke-linejoin="round"/>
<g id="SVGRepo_iconCarrier"> <path style="fill:#1102d9;" d="M503.407,432.422c-10.635-0.836-21.386-1.266-32.23-1.266c-78.996,0-152.709,22.582-215.068,61.627 c-34.773-21.769-73.075-38.43-113.862-48.891c-32.346-8.325-66.26-12.736-101.206-12.736c-10.844,0-21.583,0.43-32.218,1.266 c12.191-45.28,59.212-59.212,59.212-59.212l4.853-37.756l18.077-140.855c5.329-41.53,25.682-77.858,55.16-103.807 c29.49-25.937,68.106-41.495,109.995-41.495c83.756,0,154.474,62.231,165.144,145.302l22.93,178.612 C444.195,373.21,491.216,387.143,503.407,432.422z"/> <g> <path style="fill:#0b00a8;" d="M256.113,49.296c-49.285,0-90.897,62.231-97.178,145.302l-13.096,195.284 c-26.146-4.087-52.118-9.648-77.789-16.672h-0.012l22.93-178.612C101.639,111.527,172.357,49.296,256.113,49.296z"/> <path style="fill:#0b00a8;" d="M142.34,443.766l-0.093,0.128c-32.346-8.325-66.26-12.736-101.206-12.736 c-10.844,0-21.583,0.43-32.218,1.266c12.191-45.28,59.212-59.212,59.212-59.212l4.853-37.756l72.947,54.429 C133.087,410.305,142.34,443.766,142.34,443.766z"/> </g> <g> <path style="fill:#EAB96C;" d="M337.856,70.729l-0.302,0.534c-12.017,25.09-43.991,41.309-81.446,41.309 c-37.443,0-69.406-16.22-81.434-41.309l-0.302-0.534c8.406-4.749,17.264-8.777,26.483-12.017v0.012 c6.862,14.327,29.002,24.823,55.253,24.823c26.262,0,48.403-10.496,55.265-24.823v-0.012 C320.592,61.951,329.451,65.98,337.856,70.729z"/> <polygon style="fill:#EAB96C;" points="256.117,194.281 279.646,217.811 312.921,217.811 312.921,251.086 336.449,274.614 312.921,298.143 312.921,331.418 279.646,331.418 256.117,354.947 232.588,331.418 199.313,331.418 199.313,298.143 175.784,274.614 199.313,251.086 199.313,217.811 232.588,217.811 "/> </g> <path d="M511.701,430.789c-10.854-40.314-45.957-57.894-59.663-63.342l-22.252-173.328c-3.517-27.361-13.57-53.81-29.072-76.488 c-15.093-22.079-35.389-40.702-58.69-53.852c-8.867-5.009-18.247-9.265-27.873-12.648c-15.939-5.616-32.533-8.859-49.443-9.689 V18.585c0-4.809-3.899-8.708-8.708-8.708c-4.809,0-8.708,3.899-8.708,8.708v22.857c-16.905,0.831-33.499,4.073-49.439,9.686 c-9.632,3.384-19.012,7.641-27.873,12.646c-10.571,5.96-20.571,13.062-29.726,21.113c-3.867,3.404-7.624,7.017-11.167,10.738 c-3.316,3.483-3.181,8.994,0.302,12.312c3.482,3.316,8.994,3.182,12.311-0.302c3.192-3.352,6.577-6.607,10.059-9.674 c6.073-5.342,12.563-10.215,19.367-14.562c15.774,23.645,47.976,38.511,84.866,38.511c36.902,0,69.106-14.862,84.874-38.503 c39.139,25.048,65.698,66.658,71.644,112.93l21.961,171.057c-15.976,4.184-32.222,7.838-48.402,10.88 c-4.727,0.889-7.837,5.441-6.949,10.167c0.786,4.183,4.442,7.101,8.549,7.101c0.533,0,1.075-0.049,1.618-0.151 c18.233-3.427,36.546-7.62,54.483-12.453c7.703,2.841,34.09,14.22,46.745,40.595c-6.491-0.301-12.998-0.453-19.455-0.453 c-76.128,0-150.365,20.764-215.067,60.103c-64.691-39.339-138.928-60.103-215.069-60.103c-6.447,0-12.944,0.151-19.429,0.452 c12.656-26.244,39.102-37.736,46.763-40.595c61.612,16.611,124.263,24.954,187.253,24.954c35.517,0,71.141-2.647,106.746-7.95 c4.757-0.708,8.039-5.139,7.331-9.894c-0.708-4.757-5.14-8.047-9.895-7.33c-94.751,14.108-189.639,8.943-282.167-15.328 l21.96-171.053c3.223-25.122,12.552-49.342,26.976-70.045c2.749-3.945,1.78-9.373-2.166-12.122 c-3.945-2.752-9.374-1.781-12.122,2.166c-16.022,22.994-26.383,49.892-29.961,77.784L59.962,367.447 c-13.706,5.448-48.808,23.028-59.663,63.342c-0.735,2.732-0.098,5.651,1.71,7.828c1.809,2.177,4.563,3.332,7.381,3.117 c10.453-0.822,21.063-1.239,31.536-1.239c74.685,0,147.457,20.851,210.446,60.3c1.414,0.885,3.018,1.328,4.622,1.328 c1.603,0,3.208-0.442,4.621-1.328c63.002-39.448,135.772-60.3,210.446-60.3c10.481,0,21.095,0.417,31.547,1.239 c2.812,0.212,5.573-0.942,7.381-3.117C511.799,436.44,512.436,433.521,511.701,430.789z M255.936,58.634 c0.022,0,0.043,0.003,0.064,0.003c0.022,0,0.044-0.003,0.066-0.003c13.67,0.005,27.148,1.758,40.226,5.212 c-8.364,6.517-22.524,11.623-40.298,11.623c-17.767,0-31.922-5.105-40.285-11.622C228.789,60.394,242.269,58.641,255.936,58.634z M255.994,104.495c-30.522,0-56.848-11.436-69.638-29.67c3.557-1.752,7.183-3.379,10.867-4.857 c11.098,13.953,33.485,22.916,58.771,22.916c25.292,0,47.683-8.964,58.782-22.916c3.684,1.479,7.311,3.106,10.87,4.859 C312.863,93.059,286.532,104.495,255.994,104.495z"/> <path d="M312.805,209.732h-29.668l-20.979-20.979c-3.399-3.401-8.913-3.401-12.314,0l-20.979,20.979h-29.668 c-4.809,0-8.708,3.899-8.708,8.708v29.669l-20.979,20.979c-3.401,3.401-3.401,8.914,0,12.314l20.979,20.979v29.668 c0,4.809,3.899,8.708,8.708,8.708h29.668l20.979,20.979c1.7,1.7,3.929,2.551,6.157,2.551c2.228,0,4.457-0.85,6.157-2.551 l20.979-20.979h29.668c4.809,0,8.708-3.899,8.708-8.708V302.38l20.979-20.979c3.401-3.401,3.401-8.914,0-12.314l-20.979-20.979 V218.44C321.513,213.631,317.615,209.732,312.805,209.732z M324.021,275.244l-17.371,17.371c-1.634,1.632-2.551,3.848-2.551,6.157 v24.567h-24.567c-2.309,0-4.525,0.917-6.157,2.551l-17.371,17.371l-17.372-17.371c-1.634-1.634-3.848-2.551-6.157-2.551h-24.567 v-24.567c0-2.309-0.917-4.525-2.551-6.157l-17.371-17.371l17.371-17.371c1.634-1.632,2.551-3.848,2.551-6.157v-24.567h24.567 c2.309,0,4.523-0.917,6.157-2.551l17.372-17.371l17.371,17.371c1.632,1.634,3.848,2.551,6.157,2.551h24.567v24.567 c0,2.309,0.917,4.525,2.551,6.157L324.021,275.244z"/> <path d="M256.002,235.061c-22.156,0-40.182,18.026-40.182,40.182s18.026,40.182,40.182,40.182s40.182-18.025,40.182-40.182 C296.184,253.086,278.159,235.061,256.002,235.061z M256.002,298.011c-12.554,0-22.767-10.212-22.767-22.767 s10.214-22.767,22.767-22.767c12.553,0,22.767,10.214,22.767,22.767C278.768,287.797,268.556,298.011,256.002,298.011z"/> </g>
</svg>